<?xml version="1.0" encoding="UTF-8" standalone="no"?>
<!-- Created with Inkscape (http://www.inkscape.org/) -->

<svg
   width="578.61505mm"
   height="316.60895mm"
   viewBox="0 0 578.61506 316.60895"
   version="1.1"
   id="svg1"
   xml:space="preserve"
   inkscape:version="1.3.2 (091e20e, 2023-11-25, custom)"
   sodipodi:docname="itz.svg"
   xmlns:inkscape="http://www.inkscape.org/namespaces/inkscape"
   xmlns:sodipodi="http://sodipodi.sourceforge.net/DTD/sodipodi-0.dtd"
   xmlns="http://www.w3.org/2000/svg"
   xmlns:svg="http://www.w3.org/2000/svg"><sodipodi:namedview
     id="namedview1"
     pagecolor="#ffffff"
     bordercolor="#000000"
     borderopacity="0.25"
     inkscape:showpageshadow="2"
     inkscape:pageopacity="0.0"
     inkscape:pagecheckerboard="0"
     inkscape:deskcolor="#d1d1d1"
     inkscape:document-units="mm"
     inkscape:zoom="4.086974"
     inkscape:cx="-6.7286946"
     inkscape:cy="-258.74889"
     inkscape:window-width="1920"
     inkscape:window-height="1046"
     inkscape:window-x="-11"
     inkscape:window-y="-11"
     inkscape:window-maximized="1"
     inkscape:current-layer="layer1" /><defs
     id="defs1" /><g
     inkscape:label="Layer 1"
     inkscape:groupmode="layer"
     id="layer1"
     transform="translate(305.53655,223.70497)"><text
       xml:space="preserve"
       style="font-size:164.873px;font-family:Tahoma;-inkscape-font-specification:Tahoma;letter-spacing:0px;fill:#d58921;fill-opacity:1;stroke-width:4.67359;stroke-linecap:round;paint-order:stroke fill markers"
       x="-298.61185"
       y="-108.29387"
       id="text3"><tspan
         sodipodi:role="line"
         id="tspan3"
         x="-298.61185"
         y="-108.29387"
         style="font-style:normal;font-variant:normal;font-weight:normal;font-stretch:normal;font-family:'Techno Race';-inkscape-font-specification:'Techno Race';fill:#d58921;fill-opacity:1;stroke-width:4.67359"><tspan
           style="fill:#d58921;fill-opacity:1;stroke-width:4.67359"
           id="tspan6">Itz</tspan></tspan></text><path
       style="font-size:35.2777px;font-family:'Techno Race';-inkscape-font-specification:'Techno Race';letter-spacing:0px;fill:#ffffff;stroke-width:4.67359;stroke-linecap:round;paint-order:stroke fill markers"
       d="m -303.15371,59.929308 h 24.73102 l 23.90663,-90.680378 h 29.51235 l 6.59494,-24.731015 h -84.08545 c -6.59494,24.731015 -3.29746,24.731015 18.13606,24.731015 h 5.11111 z m 120.0279,-57.7056986 6.59494,-24.7310084 h -29.67723 c -19.94968,0 -23.41202,0.824365 -29.67721,24.7310084 l -1.31899,4.9462023 -13.84936,52.7594963 h 24.73102 l 14.8386,-56.2218347 0.32971,-1.4838639 z m 28.68782,57.7056986 h 37.75602 c 5.77058,-21.433546 6.59493,-24.731015 -18.13607,-24.731015 h -13.02501 c -7.41929,0 -11.54114,-3.627214 -8.24366,-16.487341 3.79208,-14.5088597 9.39778,-16.4873426 16.81708,-16.4873426 h 4.78134 l -13.18988,24.7310116 h 23.90665 l 26.379744,-49.46202 h -35.282914 c -17.64145,0 -39.40475,7.749046 -48.14302,41.218351 -8.40856,31.820569 8.73827,41.218356 26.37972,41.218356 z M -47.929847,18.710952 -58.811492,59.929308 h 24.731015 l 10.881643,-41.218356 c 8.738292,-33.139556 -8.738291,-41.218351 -26.379748,-41.218351 h -34.458544 l -21.763284,82.436707 h 24.731004 L -65.901048,2.2236094 h 9.727531 c 7.419304,0 12.03576,2.1433542 8.24367,16.4873426 z m 78.479733,8.243669 H 55.2809 l 14.343991,-55.232593 7.254424,-27.204113 c -21.433543,0 -24.73101,0 -31.325948,24.731015 l -0.164866,0.824363 -1.978481,7.419308 h -9.727529 c -17.641457,0 -39.7344935,9.397781 -47.978166,41.218351 -8.903171,33.469304 8.7382842,41.218356 26.379742,41.218356 H 48.191342 C 53.797039,38.495762 54.786279,35.198293 30.055266,35.198293 H 18.679001 c -7.419304,0 -12.0357618,-1.97848 -8.243669,-16.487341 C 13.732798,5.8508261 19.833114,2.2236094 27.252419,2.2236094 H 36.97995 Z M 84.46365,59.929308 106.06207,-22.507399 H 81.331052 L 59.732636,59.929308 Z m 72.0495,-41.218356 -10.88163,41.218356 h 24.731 l 10.88165,-41.218356 c 8.7383,-33.139556 -8.73829,-41.218351 -26.37974,-41.218351 H 120.40588 L 98.642586,59.929308 H 123.3736 L 138.54196,2.2236094 h 9.72753 c 7.41931,0 12.03575,2.1433542 8.24366,16.4873426 z m 59.68402,37.920887 h 9.23292 c -3.79211,9.397786 -8.90317,11.541142 -24.89591,11.541142 l -6.59493,24.731012 c 32.48006,0 50.12153,-11.211393 60.67343,-51.110763 l 8.0788,-31.325948 h -24.73101 l -5.60571,21.433542 h -9.72753 c -7.41931,0 -11.54113,-3.627213 -8.57341,-14.838605 3.29747,-12.8601267 8.90316,-14.8386096 16.32247,-14.8386096 h 11.37626 c 24.73102,0 25.72025,-3.2974678 31.32596,-24.7310084 h -36.10729 c -17.64146,0 -39.23987,7.749046 -47.64842,39.569618 -7.91391,30.171833 9.23292,39.56962 26.87437,39.56962 z"
       id="text4"
       aria-label="Trending"
       sodipodi:nodetypes="ccccccsccccscccccccscsscsccccscsccccsccccsccccccccscscsscscccccccccccsccccscscccccccscsscscs" /><path
       id="path4"
       style="opacity:1;fill:#d58921;fill-opacity:1;stroke-width:1.59573;stroke-linecap:round;paint-order:stroke fill markers"
       d="m 105.24864,-69.105864 c -1.07799,7.393662 -5.00604,10.487941 -10.515388,14.719399 -14.058171,10.797347 -10.462854,21.965331 -2.496695,24.535592 9.726243,3.138151 27.385323,-8.377709 22.220593,-27.599876 -1.31218,2.38408 -2.8757,3.877127 -4.83484,4.618683 2.22114,-6.008212 3.34816,-10.960105 -4.37367,-16.273798 z m 0.31198,17.620383 c -2.25717,3.454511 -1.5776,4.900258 -0.58355,6.877298 2.53653,5.044786 -3.93609,11.273001 -7.994841,11.463799 -4.72176,0.221992 -9.66055,-3.92296 -0.07671,-12.895339 -0.277135,1.113894 -0.103903,1.811564 0.534547,2.158036 1.205732,-2.807181 2.528595,-5.121112 8.120584,-7.603794 z"
       sodipodi:nodetypes="cssccccssccc" /></g></svg>
